<?xml version="1.0" encoding="utf-8"?>
<!-- Generator: Adobe Illustrator 28.2.0, SVG Export Plug-In . SVG Version: 6.00 Build 0)  -->
<svg version="1.1" xmlns="http://www.w3.org/2000/svg" xmlns:xlink="http://www.w3.org/1999/xlink" x="0px" y="0px"
	 viewBox="0 0 3000 3000" style="enable-background:new 0 0 3000 3000;" xml:space="preserve">
<style type="text/css">
	.st0{fill:#F0E7DE;}
	.st1{filter:url(#Adobe_OpacityMaskFilter);}
	.st2{fill:url(#SVGID_00000039117182675745385750000006772974215012337036_);}
	.st3{mask:url(#SVGID_1_);fill:#F0E7DE;}
	.st4{filter:url(#Adobe_OpacityMaskFilter_00000070797318906621088230000012650904293043717527_);}
	.st5{fill:url(#SVGID_00000069365407667966429410000015196329220684366760_);}
	.st6{mask:url(#SVGID_00000033349711220441051070000000827152918643034516_);fill:#F0E7DE;}
	.st7{filter:url(#Adobe_OpacityMaskFilter_00000019641919985323087890000014012260318333552288_);}
	.st8{fill:url(#SVGID_00000157271678596722531270000004390517040959161239_);}
	.st9{mask:url(#SVGID_00000150100972276892881470000006407812932261506742_);fill:#F0E7DE;}
	.st10{filter:url(#Adobe_OpacityMaskFilter_00000178915738983935990840000008333947253167877296_);}
	.st11{fill:url(#SVGID_00000147202213201300532190000016983696637276034226_);}
	.st12{mask:url(#SVGID_00000183239048635957326100000012442949669616768426_);fill:#F0E7DE;}
</style>
<g id="Layer_1">
</g>
<g id="Layer_2">
	<g>
		<path class="st0" d="M975.94,1190.94h-74.47c-5.52,0-10,4.48-10,10v228.4h288.99v-33.88
			C1180.46,1282.5,1088.89,1190.94,975.94,1190.94z"/>
		<path class="st0" d="M1489.35,2383.33c0,131.66-106.72,238.4-238.38,238.4h-30.53c-11.08,0-20.06-8.98-20.06-20.08v-218.32
			H1489.35z"/>
		<defs>
			<filter id="Adobe_OpacityMaskFilter" filterUnits="userSpaceOnUse" x="891.46" y="1424.78" width="289.68" height="645.94">
				<feFlood  style="flood-color:white;flood-opacity:1" result="back"/>
				<feBlend  in="SourceGraphic" in2="back" mode="normal"/>
			</filter>
		</defs>
		<mask maskUnits="userSpaceOnUse" x="891.46" y="1424.78" width="289.68" height="645.94" id="SVGID_1_">
			<g class="st1">
				
					<radialGradient id="SVGID_00000103240162094820262400000013335508929878842255_" cx="1038.1439" cy="1875.1768" r="288.5024" fx="1324.5483" fy="1909.9067" gradientTransform="matrix(1.3711 1.0532 -1.7643 2.841 2824.1104 -4704.918)" gradientUnits="userSpaceOnUse">
					<stop  offset="0.0541" style="stop-color:#000000"/>
					<stop  offset="0.3766" style="stop-color:#FFFFFF"/>
				</radialGradient>
				
					<ellipse style="fill:url(#SVGID_00000103240162094820262400000013335508929878842255_);" cx="1054.37" cy="1895.06" rx="250.29" ry="278.36"/>
			</g>
		</mask>
		<path class="st3" d="M1180.45,1748.51v-323.73H891.46v323.73c0,106.91,24.2,187.33,72.59,241.29
			c48.4,53.95,120.51,80.92,216.4,80.92h0.69v-305.86C1180.68,1759.51,1180.45,1754.05,1180.45,1748.51z"/>
		<defs>
			
				<filter id="Adobe_OpacityMaskFilter_00000137100166539428560430000007291260646268416686_" filterUnits="userSpaceOnUse" x="1200.38" y="931.11" width="289.66" height="1452.22">
				<feFlood  style="flood-color:white;flood-opacity:1" result="back"/>
				<feBlend  in="SourceGraphic" in2="back" mode="normal"/>
			</filter>
		</defs>
		
			<mask maskUnits="userSpaceOnUse" x="1200.38" y="931.11" width="289.66" height="1452.22" id="SVGID_00000129923482722525838520000002067531980921396883_">
			<g style="filter:url(#Adobe_OpacityMaskFilter_00000137100166539428560430000007291260646268416686_);">
				
					<radialGradient id="SVGID_00000145744482106949371830000002912372342149063088_" cx="1090.9401" cy="1236.6272" r="288.5024" fx="1377.3445" fy="1271.3572" gradientTransform="matrix(1.3711 -1.0532 -1.7643 -2.841 1912.5836 5948.4736)" gradientUnits="userSpaceOnUse">
					<stop  offset="0.0541" style="stop-color:#000000"/>
					<stop  offset="0.3766" style="stop-color:#FFFFFF"/>
				</radialGradient>
				
					<ellipse style="fill:url(#SVGID_00000145744482106949371830000002912372342149063088_);" cx="1341.82" cy="1107.02" rx="250.29" ry="278.36"/>
			</g>
		</mask>
		<path style="mask:url(#SVGID_00000129923482722525838520000002067531980921396883_);fill:#F0E7DE;" d="M1490.04,931.11v305.84
			c-0.46,5.35-0.69,10.81-0.69,16.37v1130.01h-288.97V1253.32c0-106.91,24.2-187.33,72.57-241.29
			c48.4-53.95,120.53-80.92,216.4-80.92H1490.04z"/>
		<path class="st0" d="M1829.54,1809.06h41.02c131.42,0,237.96-106.54,237.96-237.96v-0.44h-288.99v228.4
			C1819.54,1804.58,1824.02,1809.06,1829.54,1809.06z"/>
		<path class="st0" d="M1510.65,616.67c0-131.66,106.72-238.4,238.38-238.4h30.53c11.08,0,20.06,8.98,20.06,20.08v218.32H1510.65z"
			/>
		<defs>
			
				<filter id="Adobe_OpacityMaskFilter_00000026878715190153727610000018071322951197258400_" filterUnits="userSpaceOnUse" x="1818.86" y="929.28" width="289.68" height="645.94">
				<feFlood  style="flood-color:white;flood-opacity:1" result="back"/>
				<feBlend  in="SourceGraphic" in2="back" mode="normal"/>
			</filter>
		</defs>
		
			<mask maskUnits="userSpaceOnUse" x="1818.86" y="929.28" width="289.68" height="645.94" id="SVGID_00000021094836598975221580000007165787772446577321_">
			<g style="filter:url(#Adobe_OpacityMaskFilter_00000026878715190153727610000018071322951197258400_);">
				
					<radialGradient id="SVGID_00000013174029303089046890000006666156517874077842_" cx="1278.0488" cy="2126.2383" r="288.5024" fx="1564.4532" fy="2160.9683" gradientTransform="matrix(-1.3711 -1.0532 1.7643 -2.841 61.8875 8670.8457)" gradientUnits="userSpaceOnUse">
					<stop  offset="0.0541" style="stop-color:#000000"/>
					<stop  offset="0.3766" style="stop-color:#FFFFFF"/>
				</radialGradient>
				
					<ellipse style="fill:url(#SVGID_00000013174029303089046890000006666156517874077842_);" cx="1945.63" cy="1104.94" rx="250.29" ry="278.36"/>
			</g>
		</mask>
		<path style="mask:url(#SVGID_00000021094836598975221580000007165787772446577321_);fill:#F0E7DE;" d="M1819.55,1251.49v323.73
			h288.99v-323.73c0-106.91-24.2-187.33-72.59-241.29c-48.4-53.95-120.51-80.92-216.4-80.92h-0.69v305.86
			C1819.32,1240.49,1819.55,1245.95,1819.55,1251.49z"/>
		<defs>
			
				<filter id="Adobe_OpacityMaskFilter_00000165215910395695586140000015378082858979271555_" filterUnits="userSpaceOnUse" x="1509.96" y="616.67" width="289.66" height="1452.22">
				<feFlood  style="flood-color:white;flood-opacity:1" result="back"/>
				<feBlend  in="SourceGraphic" in2="back" mode="normal"/>
			</filter>
		</defs>
		
			<mask maskUnits="userSpaceOnUse" x="1509.96" y="616.67" width="289.66" height="1452.22" id="SVGID_00000100354493903487457710000015389460750655133075_">
			<g style="filter:url(#Adobe_OpacityMaskFilter_00000165215910395695586140000015378082858979271555_);">
				
					<radialGradient id="SVGID_00000168106304035297948470000017428726942524050594_" cx="1330.8451" cy="985.5657" r="288.5024" fx="1617.2495" fy="1020.2958" gradientTransform="matrix(-1.3711 1.0532 1.7643 2.841 1859.3038 -2487.8655)" gradientUnits="userSpaceOnUse">
					<stop  offset="0.0541" style="stop-color:#000000"/>
					<stop  offset="0.3766" style="stop-color:#FFFFFF"/>
				</radialGradient>
				
					<ellipse style="fill:url(#SVGID_00000168106304035297948470000017428726942524050594_);" cx="1658.18" cy="1892.98" rx="250.29" ry="278.36"/>
			</g>
		</mask>
		<path style="mask:url(#SVGID_00000100354493903487457710000015389460750655133075_);fill:#F0E7DE;" d="M1509.96,2068.89v-305.84
			c0.46-5.35,0.69-10.81,0.69-16.37V616.67h288.97v1130.01c0,106.91-24.2,187.33-72.57,241.29c-48.4,53.95-120.53,80.92-216.4,80.92
			H1509.96z"/>
	</g>
</g>
</svg>
